<?xml version="1.0" standalone="no"?>
<!DOCTYPE svg PUBLIC "-//W3C//DTD SVG 20010904//EN"
 "http://www.w3.org/TR/2001/REC-SVG-20010904/DTD/svg10.dtd">
<svg version="1.0" xmlns="http://www.w3.org/2000/svg"
 width="800.000000pt" height="800.000000pt" viewBox="0 0 800.000000 800.000000"
 preserveAspectRatio="xMidYMid meet">
<metadata>
Created by potrace 1.14, written by Peter Selinger 2001-2017
</metadata>
<g transform="translate(0.000000,800.000000) scale(0.100000,-0.100000)"
fill="#000000" stroke="none">
<path d="M730 7665 c-25 -13 -53 -24 -63 -25 -25 0 -67 -29 -67 -46 0 -7 -18
-23 -39 -34 -22 -11 -43 -29 -46 -41 -4 -12 -27 -48 -50 -80 -34 -46 -43 -67
-43 -100 -1 -23 -6 -55 -13 -70 -6 -16 -9 -45 -5 -66 3 -21 8 -60 10 -88 2
-27 6 -57 8 -65 8 -30 38 -78 52 -83 8 -3 16 -16 18 -29 2 -12 13 -28 26 -34
31 -15 72 -54 69 -66 -2 -12 15 -21 68 -38 22 -7 56 -23 76 -36 30 -18 46 -21
90 -17 l54 4 298 -297 c163 -163 297 -300 297 -303 0 -3 15 -17 32 -31 18 -14
53 -47 78 -75 25 -27 56 -58 69 -70 35 -30 216 -216 219 -225 2 -4 -10 -12
-27 -18 -16 -6 -38 -23 -48 -39 -10 -15 -26 -34 -35 -41 -10 -7 -18 -18 -18
-24 0 -16 -82 -95 -108 -102 -12 -4 -31 -24 -41 -44 -22 -44 -56 -77 -102
-100 -18 -9 -40 -32 -49 -50 -23 -42 -258 -277 -314 -312 -28 -18 -51 -43 -65
-72 -16 -33 -33 -51 -66 -68 -29 -15 -54 -38 -69 -64 -14 -23 -34 -49 -45 -58
-40 -33 -22 -101 28 -111 35 -7 123 16 140 37 7 8 35 20 64 27 29 6 68 20 87
30 19 10 73 25 120 35 47 10 91 22 98 27 7 6 23 11 35 13 33 3 139 44 165 65
12 9 31 15 41 12 11 -3 39 6 63 20 23 13 57 28 73 31 17 4 38 9 49 12 14 5 9
-8 -21 -52 -22 -33 -46 -75 -55 -94 -21 -46 -41 -157 -31 -173 4 -6 8 -454 8
-995 l1 -983 -71 -68 c-38 -38 -76 -74 -82 -82 -7 -8 -44 -45 -83 -83 -38 -37
-70 -72 -70 -77 0 -5 -6 -9 -14 -9 -8 0 -25 -14 -38 -30 -13 -17 -36 -43 -52
-58 -65 -60 -113 -108 -117 -117 -2 -6 -23 -25 -46 -43 -23 -18 -44 -41 -48
-50 -3 -9 -23 -30 -45 -46 -22 -16 -42 -38 -46 -48 -3 -10 -9 -16 -14 -13 -5
3 -17 -7 -27 -22 -10 -15 -31 -39 -48 -53 -31 -26 -42 -37 -88 -89 -15 -17
-27 -28 -27 -24 0 4 -21 -15 -46 -42 -25 -28 -56 -61 -69 -75 -12 -14 -26 -35
-30 -47 -3 -13 -11 -23 -17 -23 -6 0 -8 -10 -4 -24 3 -14 1 -28 -5 -31 -5 -4
-9 -19 -8 -33 1 -15 -2 -35 -6 -45 -4 -9 -5 -26 -2 -37 3 -11 -1 -21 -10 -25
-12 -4 -14 -14 -10 -40 3 -21 2 -35 -4 -35 -6 0 -9 -12 -8 -28 2 -15 0 -32 -3
-38 -7 -10 -18 -126 -23 -244 -2 -36 -10 -85 -19 -110 -9 -25 -19 -83 -23
-130 -7 -103 3 -120 73 -120 24 0 44 4 44 8 0 5 13 7 30 4 16 -2 38 -1 47 3
10 4 30 7 46 6 15 -2 27 1 27 6 0 4 12 9 28 10 47 3 107 15 117 23 6 5 27 11
48 14 21 3 73 13 115 23 42 9 109 16 147 17 39 1 75 4 80 7 6 4 37 10 69 14
62 7 106 22 106 37 0 4 4 7 9 6 4 -2 30 22 57 52 27 30 60 64 74 75 14 11 34
30 45 43 11 13 29 31 40 41 10 9 40 38 65 65 25 27 60 63 79 80 19 17 44 42
55 55 12 13 30 31 40 40 25 21 73 69 112 112 17 18 45 45 61 59 16 14 35 34
43 46 8 11 24 27 36 35 12 7 51 46 87 86 36 39 67 69 70 67 3 -3 15 10 28 28
28 39 59 71 59 61 0 -5 18 12 39 37 36 42 40 44 57 30 33 -26 154 -92 154 -84
0 3 19 -10 43 -30 23 -19 49 -36 57 -38 8 -2 17 -6 20 -9 5 -6 75 -45 160 -91
30 -16 60 -34 66 -39 6 -5 23 -10 38 -11 14 -1 26 -8 26 -14 0 -13 33 -37 105
-75 28 -14 67 -36 88 -48 20 -11 53 -30 72 -41 19 -11 35 -16 35 -12 0 4 5 -1
11 -10 5 -10 15 -18 20 -18 6 0 23 -8 37 -19 15 -10 44 -28 65 -40 20 -11 54
-31 75 -43 153 -88 182 -96 342 -97 147 0 200 10 283 55 34 18 81 43 105 55
23 12 42 26 42 31 0 4 3 7 8 6 12 -2 45 13 77 37 17 12 53 35 80 50 28 15 73
41 100 56 28 16 67 36 88 46 20 10 37 21 37 25 0 5 6 8 13 8 7 0 19 9 27 20 8
11 22 20 32 20 10 0 18 5 18 12 0 6 3 8 7 5 3 -4 18 1 32 10 14 9 44 27 66 39
22 11 57 31 78 43 20 11 53 30 73 41 65 37 84 52 84 67 0 8 4 12 9 9 12 -8 71
14 71 26 0 5 4 7 9 4 5 -3 20 3 34 14 14 11 29 20 35 20 5 0 17 9 27 20 17 19
18 19 47 -17 16 -20 39 -43 51 -52 12 -8 29 -24 37 -35 8 -12 27 -32 43 -46
16 -14 48 -45 71 -69 37 -40 70 -72 108 -108 40 -38 94 -92 122 -123 39 -43
86 -90 111 -111 11 -9 68 -65 127 -125 58 -60 111 -113 117 -119 6 -5 24 -23
40 -40 16 -16 40 -39 53 -51 12 -11 42 -42 66 -69 64 -71 93 -83 250 -100 75
-9 148 -18 162 -21 14 -2 63 -11 110 -20 82 -14 122 -25 166 -46 12 -5 30 -9
40 -7 10 1 27 -1 37 -6 9 -4 26 -5 37 -2 11 3 23 1 26 -4 3 -5 22 -10 42 -10
20 0 62 -2 93 -5 60 -6 76 3 84 46 6 32 -14 167 -32 215 -14 37 -23 131 -23
218 1 21 -2 43 -6 49 -4 7 -9 39 -11 71 -2 33 -8 66 -13 73 -6 6 -8 24 -4 38
3 15 2 32 -4 39 -11 14 -23 71 -23 109 0 15 -6 40 -14 55 -8 15 -15 33 -15 39
0 16 -70 94 -84 94 -14 0 -57 46 -50 53 3 2 -12 17 -31 33 -40 31 -95 84 -136
130 -14 16 -34 36 -45 44 -11 8 -32 32 -47 52 -15 20 -36 39 -46 43 -10 3 -22
17 -25 30 -3 13 -16 30 -28 36 -13 7 -31 23 -41 36 -10 12 -24 23 -30 24 -7 0
-41 36 -77 79 -36 44 -73 80 -82 80 -10 0 -29 17 -42 38 -13 20 -33 44 -45 52
-11 8 -21 19 -21 26 0 6 -21 26 -47 44 -63 44 -113 91 -113 106 0 7 -17 26
-37 43 l-38 31 0 991 c0 545 3 993 7 995 32 20 -56 274 -95 274 -6 0 -7 3 -4
7 4 3 -3 17 -15 31 l-23 24 25 -10 c14 -5 50 -18 80 -28 30 -9 60 -23 65 -31
6 -7 35 -15 65 -18 31 -3 60 -11 66 -19 12 -17 88 -48 124 -50 14 0 30 -6 35
-12 6 -6 48 -19 94 -28 47 -9 102 -25 123 -36 21 -11 45 -20 52 -20 7 0 30
-11 51 -25 20 -14 45 -25 54 -23 9 1 31 -6 49 -16 88 -46 174 33 112 104 -11
13 -20 29 -20 37 0 7 -12 23 -26 36 -15 12 -35 31 -46 42 -11 11 -33 27 -51
35 -18 9 -33 24 -35 36 -4 25 -90 110 -117 115 -11 2 -27 19 -36 37 -20 39
-128 152 -146 152 -17 0 -73 56 -73 74 0 15 -64 76 -80 76 -14 0 -47 35 -54
57 -3 10 -24 36 -47 58 -23 22 -55 54 -72 70 -16 17 -34 29 -39 27 -5 -1 -13
8 -17 20 -10 23 -82 94 -115 113 -17 10 -10 20 63 90 45 44 119 117 164 163
191 193 400 402 404 402 2 0 32 30 66 67 34 37 112 116 172 176 l110 108 58
-6 c37 -4 57 -2 57 5 0 5 8 10 17 10 9 0 25 8 35 17 20 18 24 20 75 29 23 4
38 16 52 40 12 19 36 44 56 55 19 12 35 28 35 38 0 9 9 22 21 29 12 7 18 16
15 19 -3 3 2 11 11 18 8 6 16 26 17 43 0 18 5 32 9 32 4 0 8 19 8 43 0 120 -1
147 -6 202 -4 37 -13 65 -23 73 -9 6 -12 12 -6 12 5 0 2 6 -6 13 -20 16 -54
67 -60 92 -3 11 -25 30 -48 43 -23 13 -42 29 -42 37 0 16 -43 45 -67 45 -10 0
-39 11 -65 25 -41 22 -60 25 -145 25 -71 0 -104 -4 -120 -15 -12 -8 -29 -16
-40 -18 -52 -11 -123 -45 -123 -60 0 -7 -18 -23 -40 -36 -22 -12 -49 -39 -61
-61 -13 -22 -26 -40 -30 -40 -4 0 -10 -15 -13 -34 -4 -18 -16 -42 -27 -52 -17
-16 -20 -27 -16 -81 5 -62 4 -64 -26 -85 -38 -26 -137 -126 -137 -139 0 -5 -5
-9 -10 -9 -6 0 -57 -48 -115 -107 -127 -130 -112 -116 -157 -154 -21 -17 -38
-37 -38 -44 0 -7 -12 -21 -27 -30 -37 -25 -353 -342 -353 -355 0 -5 -4 -10 -9
-10 -6 0 -37 -26 -69 -58 -49 -48 -63 -57 -81 -51 -11 5 -21 16 -21 26 0 19
-229 250 -243 245 -5 -1 -6 2 -3 7 4 5 -12 24 -34 42 -22 18 -40 38 -40 45 0
7 -15 23 -32 36 -18 12 -46 37 -61 55 -16 18 -38 33 -48 33 -11 0 -19 7 -19
17 0 9 -17 32 -38 52 -21 20 -41 44 -45 54 -4 10 -13 20 -21 23 -20 8 -216
203 -216 214 0 5 -6 13 -14 17 -8 4 -34 26 -58 48 -23 22 -62 49 -86 59 -87
39 -119 -21 -69 -129 29 -61 37 -94 43 -164 3 -33 12 -63 22 -74 9 -11 16 -21
15 -23 -1 -2 4 -18 11 -36 8 -18 20 -59 27 -92 7 -32 19 -60 26 -63 7 -3 13
-15 13 -28 0 -12 7 -28 15 -35 8 -7 15 -20 15 -30 0 -10 6 -30 14 -45 8 -15
12 -34 9 -42 -6 -15 9 -73 36 -138 9 -22 15 -43 14 -46 -1 -4 4 -13 12 -19 8
-7 15 -20 15 -29 0 -18 81 -101 98 -101 6 0 13 -9 17 -19 3 -11 28 -39 54 -63
54 -49 54 -52 -11 -101 -21 -15 -38 -33 -38 -39 0 -6 -23 -31 -52 -57 -29 -25
-64 -58 -78 -74 -18 -18 -29 -24 -36 -17 -6 6 -26 18 -45 29 -19 10 -61 33
-94 51 -33 18 -78 42 -99 52 -21 11 -47 28 -57 37 -11 10 -38 28 -61 40 -24
12 -61 33 -83 46 -67 39 -178 92 -215 103 -47 14 -273 14 -335 0 -53 -12 -152
-61 -270 -134 -22 -13 -47 -27 -55 -31 -8 -3 -28 -16 -45 -27 -16 -12 -39 -26
-50 -32 -11 -6 -51 -27 -89 -48 -38 -20 -81 -45 -96 -56 -15 -11 -29 -17 -32
-14 -3 2 -11 -2 -18 -11 -7 -8 -17 -15 -22 -15 -6 0 -66 55 -134 123 -115 113
-122 123 -106 137 10 8 24 27 31 41 7 15 37 46 67 70 117 94 131 111 148 179
9 35 21 69 27 76 5 6 12 41 16 78 3 36 10 66 14 66 5 0 9 5 9 10 0 6 20 62 45
123 25 62 45 122 45 134 0 11 7 26 15 33 8 7 15 21 15 32 0 10 7 30 16 43 9
14 14 34 11 45 -6 25 12 100 29 121 8 8 14 21 14 28 0 6 7 23 17 37 13 20 14
33 7 62 -13 51 -47 62 -106 34 -48 -22 -62 -36 -87 -84 -9 -17 -25 -36 -36
-42 -44 -24 -105 -78 -105 -94 0 -19 -48 -72 -66 -72 -6 0 -18 -7 -25 -16 -7
-9 -23 -20 -35 -25 -13 -4 -30 -25 -40 -46 -20 -45 -72 -103 -91 -103 -18 0
-103 -81 -103 -99 0 -19 -42 -61 -61 -61 -18 0 -59 -41 -59 -58 0 -17 -114
-132 -131 -132 -22 -1 -107 -102 -102 -121 1 -3 -9 -12 -22 -19 -23 -12 -28
-10 -82 46 -32 32 -68 66 -80 74 -13 8 -23 19 -23 25 0 7 -16 25 -36 41 -57
47 -118 107 -129 128 -5 10 -14 18 -18 17 -10 -2 -37 25 -37 36 0 5 -30 35
-68 67 -37 32 -74 68 -82 80 -13 19 -100 105 -142 142 -7 6 -43 42 -80 80 -37
38 -74 76 -83 84 -9 8 -37 38 -63 66 -26 27 -61 60 -78 72 -31 21 -32 24 -28
80 4 50 1 63 -21 95 -14 21 -25 43 -25 49 0 21 -65 110 -91 123 -14 8 -45 30
-68 49 -23 20 -61 41 -84 48 -23 6 -49 17 -58 25 -11 9 -47 13 -120 13 -90 -1
-110 -4 -149 -25z m1331 -2550 c-25 -18 -56 -37 -69 -44 l-23 -12 23 35 c13
20 30 36 39 36 9 0 24 12 34 26 15 24 17 24 29 8 12 -15 8 -21 -33 -49z m3873
40 c3 -8 16 -20 28 -26 13 -5 28 -21 35 -34 13 -29 11 -28 -54 18 -42 30 -56
57 -29 57 8 0 16 -7 20 -15z m-4014 -150 c0 -2 -15 -12 -32 -20 l-33 -16 25
20 c24 20 40 26 40 16z"/>
</g>
</svg>
